<?xml version="1.0" standalone="no"?><svg xmlns="http://www.w3.org/2000/svg" viewBox="0 0 1440 320"><path fill="#27272b66" fill-opacity="1" d="M0,96L10.4,112C20.9,128,42,160,63,160C83.5,160,104,128,125,122.7C146.1,117,167,139,188,144C208.7,149,230,139,250,160C271.3,181,292,235,313,261.3C333.9,288,355,288,376,277.3C396.5,267,417,245,438,208C459.1,171,480,117,501,85.3C521.7,53,543,43,563,85.3C584.3,128,605,224,626,234.7C647,245,668,171,689,122.7C709.6,75,730,53,751,80C772.2,107,793,181,814,202.7C834.8,224,856,192,877,170.7C897.4,149,918,139,939,149.3C960,160,981,192,1002,192C1022.6,192,1043,160,1064,160C1085.2,160,1106,192,1127,218.7C1147.8,245,1169,267,1190,266.7C1210.4,267,1231,245,1252,218.7C1273,192,1294,160,1315,160C1335.7,160,1357,192,1377,176C1398.3,160,1419,96,1430,64L1440,32L1440,320L1429.6,320C1419.1,320,1398,320,1377,320C1356.5,320,1336,320,1315,320C1293.9,320,1273,320,1252,320C1231.3,320,1210,320,1190,320C1168.7,320,1148,320,1127,320C1106.1,320,1085,320,1064,320C1043.5,320,1023,320,1002,320C980.9,320,960,320,939,320C918.3,320,897,320,877,320C855.7,320,835,320,814,320C793,320,772,320,751,320C730.4,320,710,320,689,320C667.8,320,647,320,626,320C605.2,320,584,320,563,320C542.6,320,522,320,501,320C480,320,459,320,438,320C417.4,320,397,320,376,320C354.8,320,334,320,313,320C292.2,320,271,320,250,320C229.6,320,209,320,188,320C167,320,146,320,125,320C104.3,320,83,320,63,320C41.7,320,21,320,10,320L0,320Z"></path></svg>